REM MD5 fda696749586240b0a5847415ce4105c
FILE "SuperLite 1500 Series - Farland Story - Yottsu no Fuuin (Japan).bin" BINARY
  TRACK 01 MODE2/2352
    INDEX 01 00:00:00
  TRACK 02 AUDIO
    INDEX 00 51:14:46
    INDEX 01 51:16:46
  TRACK 03 AUDIO
    INDEX 00 52:09:46
    INDEX 01 52:11:46
  TRACK 04 AUDIO
    INDEX 00 52:40:15
    INDEX 01 52:42:15
  TRACK 05 AUDIO
    INDEX 00 53:38:03
    INDEX 01 53:40:03
REM LEADOUT 56:41:03
